<svg width="779.4016601562499px" height="497.59999999999997px" xmlns="http://www.w3.org/2000/svg" viewBox="-139.70083007812497 -173.79999999999998 779.4016601562499 497.59999999999997" style="background: rgba(0, 0, 0, 0);" preserveAspectRatio="xMidYMid"><defs><filter id="editing-extrude-glow"><feFlood flood-color="#ffffff" result="flood-1"></feFlood><feMorphology operator="erode" radius="1" in="SourceAlpha" result="erode"></feMorphology><feComposite operator="in" in="flood-1" in2="erode" result="comp1"></feComposite><feConvolveMatrix order="4,4" divisor="1" in="comp1" result="convolve" kernelMatrix="0 0 0 0 0 0 0 0 1 1 1 1 0 0 0 0"></feConvolveMatrix><feOffset dx="-4" dy="0" in="convolve" result="extrude"></feOffset><feComposite operator="in" in="flood-1" in2="extrude" result="comp-extrude"></feComposite><feFlood flood-color="#2c56db" result="flood-2"></feFlood><feComposite operator="in" in="flood-2" in2="SourceAlpha" result="comp2"></feComposite><feMorphology operator="dilate" radius="1" in="comp2" result="dilate"></feMorphology><feOffset dx="-6" dy="0" in="dilate" result="offset"></feOffset><feGaussianBlur in="offset" stdDeviation="5.8" result="blur"></feGaussianBlur><feComponentTransfer in="blur" result="shadow"><feFuncA type="linear" slope="0.8" intercept="-0.2"></feFuncA></feComponentTransfer><feMerge><feMergeNode in="shadow"></feMergeNode><feMergeNode in="comp-extrude"></feMergeNode><feMergeNode in="SourceGraphic"></feMergeNode></feMerge></filter></defs><g filter="url(#editing-extrude-glow)"><g transform="translate(-40.804433822631836, 169.50000762939453)"><path d="M34.20 1L34.20 1Q21.80 1 14.40-8L14.40-8L14.40-8Q7-17 7-31.60L7-31.60L7-31.60Q7-47.60 14.40-61.90L14.40-61.90L14.40-61.90Q21.80-76.20 34.10-84.90L34.10-84.90L34.10-84.90Q46.40-93.60 60.20-93.60L60.20-93.60L60.20-93.60Q64.60-93.60 66.10-91.90L66.10-91.90L66.10-91.90Q67.60-90.20 68.60-85.80L68.60-85.80L68.60-85.80Q72.80-86.60 77.40-86.60L77.40-86.60L77.40-86.60Q87.20-86.60 87.20-79.60L87.20-79.60L87.20-79.60Q87.20-75.40 84.20-59.60L84.20-59.60L84.20-59.60Q79.60-36.60 79.60-27.60L79.60-27.60L79.60-27.60Q79.60-24.60 81.10-22.80L81.10-22.80L81.10-22.80Q82.60-21 85-21L85-21L85-21Q88.80-21 94.20-25.90L94.20-25.90L94.20-25.90Q99.60-30.80 108.80-41.80L108.80-41.80L108.80-41.80Q111.20-44.60 114.20-44.60L114.20-44.60L114.20-44.60Q116.80-44.60 118.30-42.20L118.30-42.20L118.30-42.20Q119.80-39.80 119.80-35.60L119.80-35.60L119.80-35.60Q119.80-27.60 116-23.20L116-23.20L116-23.20Q107.80-13 98.60-6L98.60-6L98.60-6Q89.40 1 80.80 1L80.80 1L80.80 1Q74.20 1 68.70-3.50L68.70-3.50L68.70-3.50Q63.20-8 60.40-15.80L60.40-15.80L60.40-15.80Q50 1 34.20 1L34.20 1ZM41.40-19.20L41.40-19.20Q45.80-19.20 49.80-24.40L49.80-24.40L49.80-24.40Q53.80-29.60 55.60-38.20L55.60-38.20L63-75L63-75Q54.60-74.80 47.50-68.70L47.50-68.70L47.50-68.70Q40.40-62.60 36.20-52.60L36.20-52.60L36.20-52.60Q32-42.60 32-31.40L32-31.40L32-31.40Q32-25.20 34.50-22.20L34.50-22.20L34.50-22.20Q37-19.20 41.40-19.20L41.40-19.20ZM117.80 1L117.80 1Q110.20 1 107.10-7L107.10-7L107.10-7Q104-15 104-32.60L104-32.60L104-32.60Q104-58.60 111.40-82L111.40-82L111.40-82Q113.20-87.80 117.30-90.50L117.30-90.50L117.30-90.50Q121.40-93.20 128.80-93.20L128.80-93.20L128.80-93.20Q132.80-93.20 134.40-92.20L134.40-92.20L134.40-92.20Q136-91.20 136-88.40L136-88.40L136-88.40Q136-85.20 133-74L133-74L133-74Q131-66 129.80-60L129.80-60L129.80-60Q128.60-54 127.80-45.20L127.80-45.20L127.80-45.20Q134.40-62.40 142.60-73.20L142.60-73.20L142.60-73.20Q150.80-84 158.70-88.60L158.70-88.60L158.70-88.60Q166.60-93.20 173.20-93.20L173.20-93.20L173.20-93.20Q186.20-93.20 186.20-80.20L186.20-80.20L186.20-80.20Q186.20-72.40 181.80-52L181.80-52L181.80-52Q178-34.60 178-29L178-29L178-29Q178-21 183.80-21L183.80-21L183.80-21Q187.80-21 193.30-25.90L193.30-25.90L193.30-25.90Q198.80-30.80 208-41.80L208-41.80L208-41.80Q210.40-44.60 213.40-44.60L213.40-44.60L213.40-44.60Q216-44.60 217.50-42.20L217.50-42.20L217.50-42.20Q219-39.80 219-35.60L219-35.60L219-35.60Q219-27.60 215.20-23.20L215.20-23.20L215.20-23.20Q206.60-12.60 196.70-5.80L196.70-5.80L196.70-5.80Q186.80 1 174.20 1L174.20 1L174.20 1Q164 1 158.80-4.90L158.80-4.90L158.80-4.90Q153.60-10.80 153.60-22L153.60-22L153.60-22Q153.60-27.60 156.40-42L156.40-42L156.40-42Q159-54.60 159-59.40L159-59.40L159-59.40Q159-62.60 156.80-62.60L156.80-62.60L156.80-62.60Q154.20-62.60 149.50-55.90L149.50-55.90L149.50-55.90Q144.80-49.20 139.90-38.20L139.90-38.20L139.90-38.20Q135-27.20 132-15L132-15L132-15Q129.80-5.60 126.90-2.30L126.90-2.30L126.90-2.30Q124 1 117.80 1L117.80 1ZM241 1L241 1Q221.40 1 210.50-10.10L210.50-10.10L210.50-10.10Q199.60-21.20 199.60-39.40L199.60-39.40L199.60-39.40Q199.60-55.60 206-67.80L206-67.80L206-67.80Q212.40-80 222.60-86.60L222.60-86.60L222.60-86.60Q232.80-93.20 244-93.20L244-93.20L244-93.20Q255-93.20 261.10-86.70L261.10-86.70L261.10-86.70Q267.20-80.20 267.20-70L267.20-70L267.20-70Q267.20-61.60 263.50-55.80L263.50-55.80L263.50-55.80Q259.80-50 253.80-50L253.80-50L253.80-50Q250-50 247.70-51.80L247.70-51.80L247.70-51.80Q245.40-53.60 245.40-56.80L245.40-56.80L245.40-56.80Q245.40-58.20 245.80-60L245.80-60L245.80-60Q246.20-61.80 246.40-62.60L246.40-62.60L246.40-62.60Q247.40-65.60 247.40-68.20L247.40-68.20L247.40-68.20Q247.40-70.80 246.10-72.20L246.10-72.20L246.10-72.20Q244.80-73.60 242.40-73.60L242.40-73.60L242.40-73.60Q237.80-73.60 233.80-69.50L233.80-69.50L233.80-69.50Q229.80-65.40 227.40-58.40L227.40-58.40L227.40-58.40Q225-51.40 225-43L225-43L225-43Q225-19.80 245.20-19.80L245.20-19.80L245.20-19.80Q253.40-19.80 262.90-25.30L262.90-25.30L262.90-25.30Q272.40-30.80 281.60-41.80L281.60-41.80L281.60-41.80Q284-44.60 287-44.60L287-44.60L287-44.60Q289.60-44.60 291.10-42.20L291.10-42.20L291.10-42.20Q292.60-39.80 292.60-35.60L292.60-35.60L292.60-35.60Q292.60-28 288.80-23.20L288.80-23.20L288.80-23.20Q279.40-11.60 266.30-5.30L266.30-5.30L266.30-5.30Q253.20 1 241 1L241 1ZM387.40-44.60L387.40-44.60Q390-44.60 391.50-42.20L391.50-42.20L391.50-42.20Q393-39.80 393-35.60L393-35.60L393-35.60Q393-27.60 389.20-23.20L389.20-23.20L389.20-23.20Q380-12.60 370.30-5.80L370.30-5.80L370.30-5.80Q360.60 1 348.20 1L348.20 1L348.20 1Q338 1 332.80-4.90L332.80-4.90L332.80-4.90Q327.60-10.80 327.60-22L327.60-22L327.60-22Q327.60-27.60 330.40-42L330.40-42L330.40-42Q333-54.60 333-59.40L333-59.40L333-59.40Q333-62.60 330.80-62.60L330.80-62.60L330.80-62.60Q328.20-62.60 323.40-55.90L323.40-55.90L323.40-55.90Q318.60-49.20 313.80-38.20L313.80-38.20L313.80-38.20Q309-27.20 306-15L306-15L306-15Q302.20 1 287.20 1L287.20 1L287.20 1Q281.20 1 279.30-3.30L279.30-3.30L279.30-3.30Q277.40-7.60 277.40-18.80L277.40-18.80L277.40-18.80Q277.40-25.20 277.60-29L277.60-29L277.80-45L277.80-45Q277.80-75.80 284.10-109.20L284.10-109.20L284.10-109.20Q290.40-142.60 302.70-165.30L302.70-165.30L302.70-165.30Q315-188 332.20-188L332.20-188L332.20-188Q341.40-188 347.10-180.10L347.10-180.10L347.10-180.10Q352.80-172.20 352.80-159.60L352.80-159.60L352.80-159.60Q352.80-139.40 341-117.70L341-117.70L341-117.70Q329.20-96 302.60-67L302.60-67L302.60-67Q302-56.60 302-45.60L302-45.60L302-45.60Q308.60-62.60 316.70-73.30L316.70-73.30L316.70-73.30Q324.80-84 332.70-88.60L332.70-88.60L332.70-88.60Q340.60-93.20 347.20-93.20L347.20-93.20L347.20-93.20Q360.20-93.20 360.20-80.20L360.20-80.20L360.20-80.20Q360.20-72.40 355.80-52L355.80-52L355.80-52Q352-34.60 352-29L352-29L352-29Q352-21 357.80-21L357.80-21L357.80-21Q361.80-21 367.30-25.90L367.30-25.90L367.30-25.90Q372.80-30.80 382-41.80L382-41.80L382-41.80Q384.40-44.60 387.40-44.60L387.40-44.60ZM328-168.20L328-168.20Q324.40-168.20 320-157.90L320-157.90L320-157.90Q315.60-147.60 311.50-130.10L311.50-130.10L311.50-130.10Q307.40-112.60 304.80-92L304.80-92L304.80-92Q317.20-106.60 325.30-123.80L325.30-123.80L325.30-123.80Q333.40-141 333.40-155L333.40-155L333.40-155Q333.40-161.40 332-164.80L332-164.80L332-164.80Q330.60-168.20 328-168.20L328-168.20ZM478.80-61.40L478.80-61.40Q481.40-61.40 482.80-58.80L482.80-58.80L482.80-58.80Q484.20-56.20 484.20-52.20L484.20-52.20L484.20-52.20Q484.20-42.60 478.40-40.80L478.40-40.80L478.40-40.80Q466.40-36.60 452.00-36L452.00-36L452.00-36Q448.20-19.20 437.00-9.10L437.00-9.10L437.00-9.10Q425.80 1 411.60 1L411.60 1L411.60 1Q399.60 1 391.10-4.80L391.10-4.80L391.10-4.80Q382.60-10.60 378.20-20.20L378.20-20.20L378.20-20.20Q373.80-29.80 373.80-41L373.80-41L373.80-41Q373.80-56.20 379.60-68.10L379.60-68.10L379.60-68.10Q385.40-80 395.60-86.70L395.60-86.70L395.60-86.70Q405.80-93.40 418.20-93.40L418.20-93.40L418.20-93.40Q433.40-93.40 442.70-82.90L442.70-82.90L442.70-82.90Q452.00-72.40 453.60-57L453.60-57L453.60-57Q463.00-57.60 476.00-61L476.00-61L476.00-61Q477.60-61.40 478.80-61.40L478.80-61.40ZM413.20-20.20L413.20-20.20Q419.60-20.20 424.30-25.40L424.30-25.40L424.30-25.40Q429.00-30.60 430.60-40.40L430.60-40.40L430.60-40.40Q424.40-44.60 421.10-51.40L421.10-51.40L421.10-51.40Q417.80-58.20 417.80-65.80L417.80-65.80L417.80-65.80Q417.80-69 418.40-72.20L418.40-72.20L417.40-72.20L417.40-72.20Q409.40-72.20 404.10-64.50L404.10-64.50L404.10-64.50Q398.80-56.80 398.80-42.80L398.80-42.80L398.80-42.80Q398.80-31.80 403.10-26L403.10-26L403.10-26Q407.40-20.20 413.20-20.20L413.20-20.20ZM481.20 1L481.20 1Q473.60 1 470.50-7L470.50-7L470.50-7Q467.40-15 467.40-32.60L467.40-32.60L467.40-32.60Q467.40-58.60 474.80-82L474.80-82L474.80-82Q476.60-87.80 480.70-90.50L480.70-90.50L480.70-90.50Q484.80-93.20 492.20-93.20L492.20-93.20L492.20-93.20Q496.20-93.20 497.80-92.20L497.80-92.20L497.80-92.20Q499.40-91.20 499.40-88.40L499.40-88.40L499.40-88.40Q499.40-85.20 496.40-74L496.40-74L496.40-74Q494.40-66 493.20-60L493.20-60L493.20-60Q492.00-54 491.20-45.20L491.20-45.20L491.20-45.20Q497.80-62.40 506.00-73.20L506.00-73.20L506.00-73.20Q514.20-84 522.10-88.60L522.10-88.60L522.10-88.60Q530-93.20 536.60-93.20L536.60-93.20L536.60-93.20Q549.60-93.20 549.60-80.20L549.60-80.20L549.60-80.20Q549.60-77.60 547.80-67.60L547.80-67.60L547.80-67.60Q546.20-59.60 546.20-57.60L546.20-57.60L546.20-57.60Q546.20-50.60 551.20-50.60L551.20-50.60L551.20-50.60Q556.80-50.60 565.60-59.40L565.60-59.40L565.60-59.40Q568.20-62 571-62L571-62L571-62Q573.60-62 575.10-59.70L575.10-59.70L575.10-59.70Q576.60-57.40 576.60-53.60L576.60-53.60L576.60-53.60Q576.60-46.20 572.60-42L572.60-42L572.60-42Q567-36.20 559.50-32.10L559.50-32.10L559.50-32.10Q552-28 543.60-28L543.60-28L543.60-28Q533-28 527.50-33.40L527.50-33.40L527.50-33.40Q522-38.80 522-48L522-48L522-48Q522-51 522.60-54L522.60-54L522.60-54Q523-58 523-59.40L523-59.40L523-59.40Q523-62.60 520.80-62.60L520.80-62.60L520.80-62.60Q517.80-62.60 512.90-55.90L512.90-55.90L512.90-55.90Q508.00-49.20 503.20-38.20L503.20-38.20L503.20-38.20Q498.40-27.20 495.40-15L495.40-15L495.40-15Q493.20-5.60 490.30-2.30L490.30-2.30L490.30-2.30Q487.40 1 481.20 1L481.20 1Z" fill="#2c56db"></path></g></g><style>text {
  font-size: 64px;
  font-family: Arial Black;
  dominant-baseline: central;
  text-anchor: middle;
}</style></svg>