<svg width="350.34951171874997px" height="227.6px" xmlns="http://www.w3.org/2000/svg" viewBox="74.82524414062502 -38.8 350.34951171874997 227.6" style="background: rgba(0, 0, 0, 0);" preserveAspectRatio="xMidYMid"><defs><filter id="editing-extrude-glow"><feFlood flood-color="#2c56db" result="flood-1"></feFlood><feMorphology operator="erode" radius="1" in="SourceAlpha" result="erode"></feMorphology><feComposite operator="in" in="flood-1" in2="erode" result="comp1"></feComposite><feConvolveMatrix order="4,4" divisor="1" in="comp1" result="convolve" kernelMatrix="0 0 0 0 0 0 0 0 1 1 1 1 0 0 0 0"></feConvolveMatrix><feOffset dx="-4" dy="0" in="convolve" result="extrude"></feOffset><feComposite operator="in" in="flood-1" in2="extrude" result="comp-extrude"></feComposite><feFlood flood-color="#2c56db" result="flood-2"></feFlood><feComposite operator="in" in="flood-2" in2="SourceAlpha" result="comp2"></feComposite><feMorphology operator="dilate" radius="1" in="comp2" result="dilate"></feMorphology><feOffset dx="-6" dy="0" in="dilate" result="offset"></feOffset><feGaussianBlur in="offset" stdDeviation="5.8" result="blur"></feGaussianBlur><feComponentTransfer in="blur" result="shadow"><feFuncA type="linear" slope="0.8" intercept="-0.2"></feFuncA></feComponentTransfer><feMerge><feMergeNode in="shadow"></feMergeNode><feMergeNode in="comp-extrude"></feMergeNode><feMergeNode in="SourceGraphic"></feMergeNode></feMerge></filter></defs><g filter="url(#editing-extrude-glow)"><g transform="translate(123.49676823616028, 116.11000323295593)"><path d="M14.88 0.44L14.88 0.44Q9.48 0.44 6.26-3.48L6.26-3.48L6.26-3.48Q3.05-7.40 3.05-13.75L3.05-13.75L3.05-13.75Q3.05-20.71 6.26-26.93L6.26-26.93L6.26-26.93Q9.48-33.15 14.83-36.93L14.83-36.93L14.83-36.93Q20.18-40.72 26.19-40.72L26.19-40.72L26.19-40.72Q28.10-40.72 28.75-39.98L28.75-39.98L28.75-39.98Q29.41-39.24 29.84-37.32L29.84-37.32L29.84-37.32Q31.67-37.67 33.67-37.67L33.67-37.67L33.67-37.67Q37.93-37.67 37.93-34.63L37.93-34.63L37.93-34.63Q37.93-32.80 36.63-25.93L36.63-25.93L36.63-25.93Q34.63-15.92 34.63-12.01L34.63-12.01L34.63-12.01Q34.63-10.70 35.28-9.92L35.28-9.92L35.28-9.92Q35.93-9.14 36.98-9.14L36.98-9.14L36.98-9.14Q38.63-9.14 40.98-11.27L40.98-11.27L40.98-11.27Q43.33-13.40 47.33-18.18L47.33-18.18L47.33-18.18Q48.37-19.40 49.68-19.40L49.68-19.40L49.68-19.40Q50.81-19.40 51.46-18.36L51.46-18.36L51.46-18.36Q52.11-17.31 52.11-15.49L52.11-15.49L52.11-15.49Q52.11-12.01 50.46-10.09L50.46-10.09L50.46-10.09Q46.89-5.66 42.89-2.61L42.89-2.61L42.89-2.61Q38.89 0.44 35.15 0.44L35.15 0.44L35.15 0.44Q32.28 0.44 29.88-1.52L29.88-1.52L29.88-1.52Q27.49-3.48 26.27-6.87L26.27-6.87L26.27-6.87Q21.75 0.44 14.88 0.44L14.88 0.44ZM18.01-8.35L18.01-8.35Q19.92-8.35 21.66-10.61L21.66-10.61L21.66-10.61Q23.40-12.88 24.19-16.62L24.19-16.62L27.41-32.63L27.41-32.63Q23.75-32.54 20.66-29.88L20.66-29.88L20.66-29.88Q17.57-27.23 15.75-22.88L15.75-22.88L15.75-22.88Q13.92-18.53 13.92-13.66L13.92-13.66L13.92-13.66Q13.92-10.96 15.01-9.66L15.01-9.66L15.01-9.66Q16.10-8.35 18.01-8.35L18.01-8.35ZM51.24 0.44L51.24 0.44Q47.94 0.44 46.59-3.05L46.59-3.05L46.59-3.05Q45.24-6.53 45.24-14.18L45.24-14.18L45.24-14.18Q45.24-25.49 48.46-35.67L48.46-35.67L48.46-35.67Q49.24-38.19 51.03-39.37L51.03-39.37L51.03-39.37Q52.81-40.54 56.03-40.54L56.03-40.54L56.03-40.54Q57.77-40.54 58.46-40.11L58.46-40.11L58.46-40.11Q59.16-39.67 59.16-38.45L59.16-38.45L59.16-38.45Q59.16-37.06 57.86-32.19L57.86-32.19L57.86-32.19Q56.98-28.71 56.46-26.10L56.46-26.10L56.46-26.10Q55.94-23.49 55.59-19.66L55.59-19.66L55.59-19.66Q58.46-27.14 62.03-31.84L62.03-31.84L62.03-31.84Q65.60-36.54 69.03-38.54L69.03-38.54L69.03-38.54Q72.47-40.54 75.34-40.54L75.34-40.54L75.34-40.54Q81.00-40.54 81.00-34.89L81.00-34.89L81.00-34.89Q81.00-31.49 79.08-22.62L79.08-22.62L79.08-22.62Q77.43-15.05 77.43-12.62L77.43-12.62L77.43-12.62Q77.43-9.14 79.95-9.14L79.95-9.14L79.95-9.14Q81.69-9.14 84.09-11.27L84.09-11.27L84.09-11.27Q86.48-13.40 90.48-18.18L90.48-18.18L90.48-18.18Q91.52-19.40 92.83-19.40L92.83-19.40L92.83-19.40Q93.96-19.40 94.61-18.36L94.61-18.36L94.61-18.36Q95.27-17.31 95.27-15.49L95.27-15.49L95.27-15.49Q95.27-12.01 93.61-10.09L93.61-10.09L93.61-10.09Q89.87-5.48 85.56-2.52L85.56-2.52L85.56-2.52Q81.26 0.44 75.78 0.44L75.78 0.44L75.78 0.44Q71.34 0.44 69.08-2.13L69.08-2.13L69.08-2.13Q66.82-4.70 66.82-9.57L66.82-9.57L66.82-9.57Q66.82-12.01 68.03-18.27L68.03-18.27L68.03-18.27Q69.17-23.75 69.17-25.84L69.17-25.84L69.17-25.84Q69.17-27.23 68.21-27.23L68.21-27.23L68.21-27.23Q67.08-27.23 65.03-24.32L65.03-24.32L65.03-24.32Q62.99-21.40 60.86-16.62L60.86-16.62L60.86-16.62Q58.73-11.83 57.42-6.53L57.42-6.53L57.42-6.53Q56.46-2.44 55.20-1.00L55.20-1.00L55.20-1.00Q53.94 0.44 51.24 0.44L51.24 0.44ZM104.84 0.44L104.84 0.44Q96.31 0.44 91.57-4.39L91.57-4.39L91.57-4.39Q86.83-9.22 86.83-17.14L86.83-17.14L86.83-17.14Q86.83-24.19 89.61-29.49L89.61-29.49L89.61-29.49Q92.39-34.80 96.83-37.67L96.83-37.67L96.83-37.67Q101.27-40.54 106.14-40.54L106.14-40.54L106.14-40.54Q110.93-40.54 113.58-37.71L113.58-37.71L113.58-37.71Q116.23-34.89 116.23-30.45L116.23-30.45L116.23-30.45Q116.23-26.80 114.62-24.27L114.62-24.27L114.62-24.27Q113.01-21.75 110.40-21.75L110.40-21.75L110.40-21.75Q108.75-21.75 107.75-22.53L107.75-22.53L107.75-22.53Q106.75-23.32 106.75-24.71L106.75-24.71L106.75-24.71Q106.75-25.32 106.92-26.10L106.92-26.10L106.92-26.10Q107.10-26.88 107.18-27.23L107.18-27.23L107.18-27.23Q107.62-28.54 107.62-29.67L107.62-29.67L107.62-29.67Q107.62-30.80 107.05-31.41L107.05-31.41L107.05-31.41Q106.49-32.02 105.44-32.02L105.44-32.02L105.44-32.02Q103.44-32.02 101.70-30.23L101.70-30.23L101.70-30.23Q99.96-28.45 98.92-25.40L98.92-25.40L98.92-25.40Q97.88-22.36 97.88-18.71L97.88-18.71L97.88-18.71Q97.88-8.61 106.66-8.61L106.66-8.61L106.66-8.61Q110.23-8.61 114.36-11.01L114.36-11.01L114.36-11.01Q118.49-13.40 122.50-18.18L122.50-18.18L122.50-18.18Q123.54-19.40 124.84-19.40L124.84-19.40L124.84-19.40Q125.98-19.40 126.63-18.36L126.63-18.36L126.63-18.36Q127.28-17.31 127.28-15.49L127.28-15.49L127.28-15.49Q127.28-12.18 125.63-10.09L125.63-10.09L125.63-10.09Q121.54-5.05 115.84-2.31L115.84-2.31L115.84-2.31Q110.14 0.44 104.84 0.44L104.84 0.44ZM168.52-19.40L168.52-19.40Q169.65-19.40 170.30-18.36L170.30-18.36L170.30-18.36Q170.96-17.31 170.96-15.49L170.96-15.49L170.96-15.49Q170.96-12.01 169.30-10.09L169.30-10.09L169.30-10.09Q165.30-5.48 161.08-2.52L161.08-2.52L161.08-2.52Q156.86 0.44 151.47 0.44L151.47 0.44L151.47 0.44Q147.03 0.44 144.77-2.13L144.77-2.13L144.77-2.13Q142.51-4.70 142.51-9.57L142.51-9.57L142.51-9.57Q142.51-12.01 143.72-18.27L143.72-18.27L143.72-18.27Q144.86-23.75 144.86-25.84L144.86-25.84L144.86-25.84Q144.86-27.23 143.90-27.23L143.90-27.23L143.90-27.23Q142.77-27.23 140.68-24.32L140.68-24.32L140.68-24.32Q138.59-21.40 136.50-16.62L136.50-16.62L136.50-16.62Q134.42-11.83 133.11-6.53L133.11-6.53L133.11-6.53Q131.46 0.44 124.93 0.44L124.93 0.44L124.93 0.44Q122.32 0.44 121.50-1.44L121.50-1.44L121.50-1.44Q120.67-3.31 120.67-8.18L120.67-8.18L120.67-8.18Q120.67-10.96 120.76-12.62L120.76-12.62L120.84-19.58L120.84-19.58Q120.84-32.97 123.58-47.50L123.58-47.50L123.58-47.50Q126.32-62.03 131.67-71.91L131.67-71.91L131.67-71.91Q137.03-81.78 144.51-81.78L144.51-81.78L144.51-81.78Q148.51-81.78 150.99-78.34L150.99-78.34L150.99-78.34Q153.47-74.91 153.47-69.43L153.47-69.43L153.47-69.43Q153.47-60.64 148.34-51.20L148.34-51.20L148.34-51.20Q143.20-41.76 131.63-29.15L131.63-29.15L131.63-29.15Q131.37-24.62 131.37-19.84L131.37-19.84L131.37-19.84Q134.24-27.23 137.76-31.89L137.76-31.89L137.76-31.89Q141.29-36.54 144.72-38.54L144.72-38.54L144.72-38.54Q148.16-40.54 151.03-40.54L151.03-40.54L151.03-40.54Q156.69-40.54 156.69-34.89L156.69-34.89L156.69-34.89Q156.69-31.49 154.77-22.62L154.77-22.62L154.77-22.62Q153.12-15.05 153.12-12.62L153.12-12.62L153.12-12.62Q153.12-9.14 155.64-9.14L155.64-9.14L155.64-9.14Q157.38-9.14 159.78-11.27L159.78-11.27L159.78-11.27Q162.17-13.40 166.17-18.18L166.17-18.18L166.17-18.18Q167.21-19.40 168.52-19.40L168.52-19.40ZM142.68-73.17L142.68-73.17Q141.11-73.17 139.20-68.69L139.20-68.69L139.20-68.69Q137.29-64.21 135.50-56.59L135.50-56.59L135.50-56.59Q133.72-48.98 132.59-40.02L132.59-40.02L132.59-40.02Q137.98-46.37 141.51-53.85L141.51-53.85L141.51-53.85Q145.03-61.34 145.03-67.43L145.03-67.43L145.03-67.43Q145.03-70.21 144.42-71.69L144.42-71.69L144.42-71.69Q143.81-73.17 142.68-73.17L142.68-73.17ZM208.28-26.71L208.28-26.71Q209.41-26.71 210.02-25.58L210.02-25.58L210.02-25.58Q210.63-24.45 210.63-22.71L210.63-22.71L210.63-22.71Q210.63-18.53 208.10-17.75L208.10-17.75L208.10-17.75Q202.88-15.92 196.62-15.66L196.62-15.66L196.62-15.66Q194.97-8.35 190.10-3.96L190.10-3.96L190.10-3.96Q185.22 0.44 179.05 0.44L179.05 0.44L179.05 0.44Q173.83 0.44 170.13-2.09L170.13-2.09L170.13-2.09Q166.43-4.61 164.52-8.79L164.52-8.79L164.52-8.79Q162.60-12.96 162.60-17.84L162.60-17.84L162.60-17.84Q162.60-24.45 165.13-29.62L165.13-29.62L165.13-29.62Q167.65-34.80 172.09-37.71L172.09-37.71L172.09-37.71Q176.52-40.63 181.92-40.63L181.92-40.63L181.92-40.63Q188.53-40.63 192.57-36.06L192.57-36.06L192.57-36.06Q196.62-31.49 197.32-24.80L197.32-24.80L197.32-24.80Q201.41-25.06 207.06-26.54L207.06-26.54L207.06-26.54Q207.76-26.71 208.28-26.71L208.28-26.71ZM179.74-8.79L179.74-8.79Q182.53-8.79 184.57-11.05L184.57-11.05L184.57-11.05Q186.62-13.31 187.31-17.57L187.31-17.57L187.31-17.57Q184.61-19.40 183.18-22.36L183.18-22.36L183.18-22.36Q181.74-25.32 181.74-28.62L181.74-28.62L181.74-28.62Q181.74-30.02 182.00-31.41L182.00-31.41L181.57-31.41L181.57-31.41Q178.09-31.41 175.78-28.06L175.78-28.06L175.78-28.06Q173.48-24.71 173.48-18.62L173.48-18.62L173.48-18.62Q173.48-13.83 175.35-11.31L175.35-11.31L175.35-11.31Q177.22-8.79 179.74-8.79L179.74-8.79ZM209.32 0.44L209.32 0.44Q206.02 0.44 204.67-3.05L204.67-3.05L204.67-3.05Q203.32-6.53 203.32-14.18L203.32-14.18L203.32-14.18Q203.32-25.49 206.54-35.67L206.54-35.67L206.54-35.67Q207.32-38.19 209.10-39.37L209.10-39.37L209.10-39.37Q210.89-40.54 214.11-40.54L214.11-40.54L214.11-40.54Q215.85-40.54 216.54-40.11L216.54-40.11L216.54-40.11Q217.24-39.67 217.24-38.45L217.24-38.45L217.24-38.45Q217.24-37.06 215.93-32.19L215.93-32.19L215.93-32.19Q215.06-28.71 214.54-26.10L214.54-26.10L214.54-26.10Q214.02-23.49 213.67-19.66L213.67-19.66L213.67-19.66Q216.54-27.14 220.11-31.84L220.11-31.84L220.11-31.84Q223.68-36.54 227.11-38.54L227.11-38.54L227.11-38.54Q230.55-40.54 233.42-40.54L233.42-40.54L233.42-40.54Q239.08-40.54 239.08-34.89L239.08-34.89L239.08-34.89Q239.08-33.76 238.29-29.41L238.29-29.41L238.29-29.41Q237.60-25.93 237.60-25.06L237.60-25.06L237.60-25.06Q237.60-22.01 239.77-22.01L239.77-22.01L239.77-22.01Q242.21-22.01 246.04-25.84L246.04-25.84L246.04-25.84Q247.17-26.97 248.39-26.97L248.39-26.97L248.39-26.97Q249.52-26.97 250.17-25.97L250.17-25.97L250.17-25.97Q250.82-24.97 250.82-23.32L250.82-23.32L250.82-23.32Q250.82-20.10 249.08-18.27L249.08-18.27L249.08-18.27Q246.65-15.75 243.38-13.96L243.38-13.96L243.38-13.96Q240.12-12.18 236.47-12.18L236.47-12.18L236.47-12.18Q231.86-12.18 229.46-14.53L229.46-14.53L229.46-14.53Q227.07-16.88 227.07-20.88L227.07-20.88L227.07-20.88Q227.07-22.19 227.33-23.49L227.33-23.49L227.33-23.49Q227.51-25.23 227.51-25.84L227.51-25.84L227.51-25.84Q227.51-27.23 226.55-27.23L226.55-27.23L226.55-27.23Q225.24-27.23 223.11-24.32L223.11-24.32L223.11-24.32Q220.98-21.40 218.89-16.62L218.89-16.62L218.89-16.62Q216.80-11.83 215.50-6.53L215.50-6.53L215.50-6.53Q214.54-2.44 213.28-1.00L213.28-1.00L213.28-1.00Q212.02 0.44 209.32 0.44L209.32 0.44Z" fill="#ffffff"></path></g></g><style>text {
  font-size: 64px;
  font-family: Arial Black;
  dominant-baseline: central;
  text-anchor: middle;
}</style></svg>